# xmcd
#
# Track frame offsets:
#   150
#   15792
#   32160
#   48030
#   68706
#   84207
#   104615
#   124294
#   142219
#   162224
#   180494
#   201127
#   214549
#   231859
#   246832
#   267310
#   281592
#   296613
#   313184
#
# Disc length: 4392 seconds
#
# Revision: 0
# Processed by: cddbd v1.5.1PL2 Copyright (c) Steve Scherf et al.
# Submitted via: uFREEDB ActiveX Control 1.5
#
DISCID=0f112613
DTITLE=diversos - By marcelo 2
DYEAR=1900
DGENRE=Country
TTITLE0=Por causa de voce
TTITLE1=Mil razoes pra chorar
TTITLE2=Ligacao Urbana
TTITLE3=Pra falar a verdade
TTITLE4=Deus me livre
TTITLE5=Laco aberto
TTITLE6=Frio da madrugada
TTITLE7=Habito
TTITLE8=Azul
TTITLE9=Pelo interfone
TTITLE10=Sem medo de ser feliz
TTITLE11=Goias e mais
TTITLE12=24 horas de amor
TTITLE13=Boate azul
TTITLE14=Som de cristal
TTITLE15=Amargurado
TTITLE16=Vivendo abandonado
TTITLE17=Da me Da me
TTITLE18=Voce endoideceu meu coraçao
EXTD=
EXTT0=
EXTT1=
EXTT2=
EXTT3=
EXTT4=
EXTT5=
EXTT6=
EXTT7=
EXTT8=
EXTT9=
EXTT10=
EXTT11=
EXTT12=
EXTT13=
EXTT14=
EXTT15=
EXTT16=
EXTT17=
EXTT18=
PLAYORDER=
